<?xml version="1.0" encoding="utf-8"?>
<!-- Generator: Adobe Illustrator 27.0.0, SVG Export Plug-In . SVG Version: 6.00 Build 0)  -->
<svg version="1.1" id="Capa_1" xmlns="http://www.w3.org/2000/svg" xmlns:xlink="http://www.w3.org/1999/xlink" x="0px" y="0px"
	 viewBox="0 0 75.2 153.4" style="enable-background:new 0 0 75.2 153.4;" xml:space="preserve">
<style type="text/css">
	.st0{fill:none;stroke:#D4A62B;stroke-width:1.6;stroke-miterlimit:10;}
	.st1{fill:none;stroke:#000000;stroke-width:3;stroke-miterlimit:10;}
</style>
<g>
	<path class="st0" d="M27.2,0c0,5.8-8,5.8-8,11.7c0,5.8,8,5.8,8,11.7c0,5.8-8,5.8-8,11.7c0,5.8,8,5.8,8,11.7c0,5.8-8,5.8-8,11.7
		c0,5.8,8,5.8,8,11.7c0,5.8-8,5.8-8,11.7c0,5.8,8,5.8,8,11.7c0,5.8-8,5.8-8,11.7c0,5.8,8,5.8,8,11.7c0,5.8-8,5.8-8,11.7"/>
</g>
<g>
	<path class="st0" d="M37.2,0c0,5.8-8,5.8-8,11.7c0,5.8,8,5.8,8,11.7c0,5.8-8,5.8-8,11.7c0,5.8,8,5.8,8,11.7c0,5.8-8,5.8-8,11.7
		c0,5.8,8,5.8,8,11.7c0,5.8-8,5.8-8,11.7c0,5.8,8,5.8,8,11.7c0,5.8-8,5.8-8,11.7c0,5.8,8,5.8,8,11.7c0,5.8-8,5.8-8,11.7"/>
</g>
<g>
	<path class="st0" d="M47.2,0c0,5.8-8,5.8-8,11.7c0,5.8,8,5.8,8,11.7c0,5.8-8,5.8-8,11.7c0,5.8,8,5.8,8,11.7c0,5.8-8,5.8-8,11.7
		c0,5.8,8,5.8,8,11.7c0,5.8-8,5.8-8,11.7c0,5.8,8,5.8,8,11.7c0,5.8-8,5.8-8,11.7c0,5.8,8,5.8,8,11.7c0,5.8-8,5.8-8,11.7"/>
</g>
<g>
	<path class="st0" d="M57.2,0c0,5.8-8,5.8-8,11.7c0,5.8,8,5.8,8,11.7c0,5.8-8,5.8-8,11.7c0,5.8,8,5.8,8,11.7c0,5.8-8,5.8-8,11.7
		c0,5.8,8,5.8,8,11.7c0,5.8-8,5.8-8,11.7c0,5.8,8,5.8,8,11.7c0,5.8-8,5.8-8,11.7c0,5.8,8,5.8,8,11.7c0,5.8-8,5.8-8,11.7"/>
</g>
<path class="st1" d="M73.7,110.1H1.5c0,16.5,11,30.3,26,34.7v7.1h20.2v-7.1C62.7,140.4,73.7,126.6,73.7,110.1z"/>
<polygon points="69.2,9.8 6.2,15.1 6,13.7 69,7.4 "/>
<polygon points="69,24.9 6.1,17.9 6.2,16.5 69.2,22.5 "/>
</svg>
