<?xml version="1.0" encoding="UTF-8"?>
<svg id="Capa_1" data-name="Capa 1" xmlns="http://www.w3.org/2000/svg" viewBox="0 0 75.25 153.39">
  <defs>
    <style>
      .cls-1 {
        stroke: #fff;
        stroke-width: 3px;
      }

      .cls-1, .cls-2 {
        fill: none;
        stroke-miterlimit: 10;
      }

      .cls-2 {
        stroke: #d4a62b;
        stroke-width: 1.6px;
      }

      .cls-3 {
        fill: #fff;
        stroke-width: 0px;
      }
    </style>
  </defs>
  <path class="cls-2" d="m27.19,0c0,5.84-8,5.84-8,11.68s8,5.84,8,11.68-8,5.84-8,11.68,8,5.84,8,11.68-8,5.84-8,11.68,8,5.84,8,11.68-8,5.84-8,11.68,8,5.84,8,11.68-8,5.84-8,11.68,8,5.84,8,11.69-8,5.84-8,11.69"/>
  <path class="cls-2" d="m37.19,0c0,5.84-8,5.84-8,11.68s8,5.84,8,11.68-8,5.84-8,11.68,8,5.84,8,11.68-8,5.84-8,11.68,8,5.84,8,11.68-8,5.84-8,11.68,8,5.84,8,11.68-8,5.84-8,11.68,8,5.84,8,11.69-8,5.84-8,11.69"/>
  <path class="cls-2" d="m47.19,0c0,5.84-8,5.84-8,11.68s8,5.84,8,11.68-8,5.84-8,11.68,8,5.84,8,11.68-8,5.84-8,11.68,8,5.84,8,11.68-8,5.84-8,11.68,8,5.84,8,11.68-8,5.84-8,11.68,8,5.84,8,11.69-8,5.84-8,11.69"/>
  <path class="cls-2" d="m57.19,0c0,5.84-8,5.84-8,11.68s8,5.84,8,11.68-8,5.84-8,11.68,8,5.84,8,11.68-8,5.84-8,11.68,8,5.84,8,11.68-8,5.84-8,11.68,8,5.84,8,11.68-8,5.84-8,11.68,8,5.84,8,11.69-8,5.84-8,11.69"/>
  <path class="cls-1" d="m73.75,110.1H1.5c0,16.45,11,30.32,26.04,34.69v7.1h20.16v-7.1c15.04-4.36,26.04-18.24,26.04-34.69Z"/>
  <polygon class="cls-3" points="69.24 9.84 6.17 15.11 6.04 13.73 69.01 7.41 69.24 9.84"/>
  <polygon class="cls-3" points="68.99 24.94 6.09 17.93 6.23 16.54 69.23 22.51 68.99 24.94"/>
</svg>